<?xml version="1.0" encoding="iso-8859-1"?>
<!-- Generator: Adobe Illustrator 16.0.0, SVG Export Plug-In . SVG Version: 6.00 Build 0)  -->
<!DOCTYPE svg PUBLIC "-//W3C//DTD SVG 1.1//EN" "http://www.w3.org/Graphics/SVG/1.1/DTD/svg11.dtd">
<svg version="1.1" id="Calque_1" xmlns="http://www.w3.org/2000/svg" xmlns:xlink="http://www.w3.org/1999/xlink" x="0px" y="0px"
	 width="241.487px" height="232.488px" viewBox="0 0 241.487 232.488" style="enable-background:new 0 0 241.487 232.488;"
	 xml:space="preserve">
<path style="fill:#FFFFFF;stroke:#FFFFFF;stroke-miterlimit:10;" d="M219.789,72.646c0.146-2.116-1.37-3.842-3.202-4.668
	c-1.576-0.71-4.226-1.451-5.877-0.588c-6.517-14.717-23.849-17.947-39.454-14.918c-7.233,1.405-12.043,7.289-15.214,14.417
	c-2.884-1.83-7.072-0.248-7.608,3.283c-0.23,1.524,0.187,3.099,1.413,4.106c0.903,0.739,2.156,1.11,3.293,0.919
	c-1.432,5.307-2.209,10.639-2.589,14.896c-0.445,4.982,0.51,10.203,4.999,12.92c4.438,2.685,8.342-1.766,8.907-5.686
	c5.057,1.47,10.365,1.313,15.613,1.344c6.587,0.042,13.136,0.63,19.692,0.12c-0.203,0.829-0.089,1.821,0.103,2.521
	c0.261,0.962,0.857,1.747,1.667,2.068c3.242,3.159,8.424,3.048,10.788-1.581c3.691-7.227,2.409-16.688,0.973-24.763
	C215.704,78.168,219.605,75.335,219.789,72.646z M158.796,70.401c-0.153,0.002-0.307,0.02-0.46,0.059
	c-0.021,0.006-0.038,0.016-0.057,0.022c0.258-0.583,0.517-1.167,0.804-1.73c0.065,0.394,0.195,0.764,0.367,1.119
	C159.189,69.991,158.956,70.166,158.796,70.401z M163.351,85.567c-1.634,0.482-2.572-1.191-2.878-2.499
	c-0.289-1.25-0.017-2.386,0.846-3.219c0.06,0.008,0.108,0.033,0.165,0.033c0.914-0.009,1.531-0.733,2.462-0.716
	c0.894,0.015,1.694,0.798,2.157,1.491C167.61,82.915,165.514,84.927,163.351,85.567z M201.91,85.674
	c-1.335-0.008-2.417-1.103-2.708-2.334c-0.051-0.216-0.051-0.411-0.026-0.592c1.904-0.436,3.679-1.06,5.189-1.928
	c0.481,0.5,0.827,1.195,1.006,2.089C205.758,84.835,203.415,85.685,201.91,85.674z M180.278,73.165
	c-4.126-0.277-20.254-0.292-19.166-7.405c0.022-0.14-0.006-0.27-0.054-0.391c2.677-3.989,6.274-7.189,11.339-8.763
	c12.361-3.84,25.736-0.025,33.228,10.401c0.403,0.562,0.773,1.145,1.118,1.742C199.257,74.094,189.025,73.75,180.278,73.165z"/>
<path style="fill:#FFFFFF;stroke:#FFFFFF;stroke-miterlimit:10;" d="M186.318,39.729c-1.289-0.76-2.979-0.674-4.26,0.076
	c-0.031-0.021-0.043-0.058-0.076-0.076c-1.969-11.083-10.717-17.028-23.041-18.672c-13.903-1.854-26.537,5.23-32.344,17.622
	c-0.559-1.118-1.985-1.583-3.294-1.564c-2.014,0.031-4.063,0.998-4.936,2.871c-0.948,2.031-0.102,3.97,1.715,5.108
	c0.818,0.512,2.238,1.064,3.532,1.171c-2.976,8.641-5.357,19.786,0.158,26.497c1.711,2.081,7.363,3.183,9.672,1.649
	c1.999-1.327,1.812-1.166,2.625-3.496c0.787-2.249,7.774-1.897,10.123-2.315c0.683-0.123,0.685-0.818,0.336-1.235
	c0.538-0.553,0.732-1.271,0.641-1.95c1.11-0.858,2.232-1.544,3.906-1.936c1.202-0.282,1.895-1.417,1.963-2.578
	c0.646-10.967,18.608-11.529,28.688-13c1.091,0.548,2.507,0.675,3.551,0.489c1.694-0.301,3.173-1.463,3.498-3.208
	C189.169,43.064,188.171,40.823,186.318,39.729z M135.816,53.373c-0.615,1.287-2.053,1.88-3.229,1.487
	c-0.889-0.295-1.506-1.329-1.709-2.207c-0.061-0.256,0.012-0.748,0.219-1.188c0.126-0.27,0.321-0.523,0.539-0.762
	c0.265,0.191,0.622,0.29,1.062,0.21c1.097-0.196,2.785,0.125,3.216,1.122c0.016,0.057,0.039,0.111,0.05,0.168
	c0.004,0.012,0,0.028,0.004,0.042c0.026,0.154,0.042,0.311,0.04,0.47C135.984,52.917,135.929,53.133,135.816,53.373z M130.65,37.165
	c0.804-1.287,1.665-2.542,2.635-3.724c11.717-14.319,40.382-11.436,45.087,6.427C161.612,41.801,146.837,43.261,130.65,37.165z"/>
<path style="fill:#FFFFFF;stroke:#FFFFFF;stroke-miterlimit:10;" d="M215.492,23.036c-1.354-0.531-3.756-0.251-5.289,0.617
	c-0.037-0.031-0.063-0.067-0.104-0.096c-0.331-1.08-0.688-2.161-1.113-3.243C203.46,6.191,191.448,3.41,177.651,5.029
	c-6.073,0.711-18.794,5.055-17.729,12.917c0.105,0.77,1.385,0.738,1.521,0c1.17-6.43,9.963-8.703,15.454-9.83
	c11.351-2.331,21.637,0.878,27.582,11.217c0.882,1.532,1.561,3.112,2.111,4.724c-8.894,3.146-17.61,1.665-26.936,0.452
	c-1.084-0.142-1.157,1.317-0.493,1.817c0.244,0.184,0.528,0.356,0.803,0.531c-1.323,0.513-2.14,2.274-0.838,3.47
	c3.097,2.848,5.64,5.895,8.258,9.18c1.091,1.371,2.238,2.668,3.441,3.943c0.398,0.425,0.224,2.358,0.493,3.042
	c0.847,2.174,3.171,2.435,5.244,2.407c2.234-0.031,5.364,0.559,7.511,1.99c-0.065,0.115-0.111,0.24-0.125,0.382
	c-0.672,6.017,5.185,12.299,9.394,5.409c2.302-3.768,0.76-10.019,0.159-14.045c-0.532-3.572-0.949-7.042-1.508-10.475
	c2.726,0.458,6.374-1.831,6.747-4.385C219.062,25.576,217.425,23.792,215.492,23.036z M216.285,26.607
	c-0.025-0.025-0.036-0.056-0.062-0.08c-0.712-0.648-1.703-1.304-2.684-1.729C214.712,24.853,215.938,25.475,216.285,26.607z
	 M204.131,41.571c-1.605,0.955-3.146-0.108-3.757-1.674c-0.531-1.361-0.234-2.739,0.802-3.656c0.109-0.023,0.22-0.056,0.332-0.125
	c0.114-0.071,0.227-0.113,0.339-0.164c0.014,0.01,0.029,0.019,0.041,0.027c1.061,0.698,1.791,1.863,2.336,2.978
	c0.354,0.722,0.371,1.469,0.493,2.188C204.542,41.298,204.35,41.441,204.131,41.571z"/>
<g>
	<circle style="fill:#FFFFFF;stroke:#FFFFFF;stroke-miterlimit:10;" cx="42.222" cy="80.188" r="12.209"/>
	<path style="fill:#FFFFFF;stroke:#FFFFFF;stroke-miterlimit:10;" d="M7.775,125.023c0,3.838,2.983,8.336,4.713,11.559
		c3.129,5.867,7.488,11.055,13.097,14.654l-0.022,7.439v46.91c0,3.857,2.821,6.988,6.789,6.988c3.964,0,7.182-3.131,7.182-6.988
		V156.71c0,0,0.227-2.479,2.752-2.502c2.521-0.029,2.456,2.385,2.456,2.385v48.859c0,3.861,3.216,6.99,7.181,6.99
		c3.964,0,7.179-3.129,7.179-6.99l0.238-50.424c0-0.477,0.051-34.086,0.062-43.042l-0.095-1.789
		c15.102-6.731,24.649-21.713,27.309-37.985c1.338-8.174-11.15-11.682-12.497-3.447c-1.732,10.618-6.646,21.287-15.557,27.235
		l-0.011-0.178c-5.912-1.214-25.304-3.201-34.012,1.172c-0.04,0.042-0.062,0.095-0.099,0.141c-0.567,0.215-1.127,0.495-1.665,0.917
		c-5.004,3.92-8.357,9.343-10.988,15.048C10.209,116.515,7.775,121.111,7.775,125.023z M19.636,124.806
		c1.332-4.559,3.263-9.086,6.05-12.963l-0.062,23.76c-1.142-1.535-2.188-3.156-3.163-4.857c-0.935-1.629-1.718-3.348-2.485-5.061
		C19.82,125.343,19.713,125.056,19.636,124.806z M19.496,124.308C19.373,123.718,19.5,123.708,19.496,124.308L19.496,124.308z"/>
</g>
<path style="fill:#FFFFFF;stroke:#FFFFFF;stroke-miterlimit:10;" d="M137.894,122.806c16.77,4.695,32.681,15.878,4.128,38.242
	c-50.328,39.427-94.455,60.699-122.51,71.586h176.199c8.061-12.451,15.774-25.562,19.836-34.123
	c18.966-39.969-2.837-62.734-38.438-74.14c-35.603-11.407-46.955-11.407-50.051-14.427c-2.698-2.631,14.711-6.16,19.209-7.017
	h-1.775c-4.569,0.382-14.419,1.458-27.494,4.334C100.433,110.901,121.125,118.11,137.894,122.806z"/>
</svg>
